<svg xmlns="http://www.w3.org/2000/svg" viewBox="0 0 1024 1024" role="img" aria-label="Svard app icon">
  <defs>
    <linearGradient id="bg" x1="176" y1="88" x2="848" y2="936" gradientUnits="userSpaceOnUse">
      <stop offset="0" stop-color="#3a927e"/>
      <stop offset="1" stop-color="#1f5f55"/>
    </linearGradient>
    <linearGradient id="page" x1="238" y1="260" x2="786" y2="760" gradientUnits="userSpaceOnUse">
      <stop offset="0" stop-color="#ffffff"/>
      <stop offset="1" stop-color="#dff1ed"/>
    </linearGradient>
    <filter id="shadow" x="120" y="120" width="784" height="784" filterUnits="userSpaceOnUse" color-interpolation-filters="sRGB">
      <feDropShadow dx="0" dy="24" stdDeviation="28" flood-color="#123f38" flood-opacity="0.28"/>
    </filter>
  </defs>

  <rect x="96" y="96" width="832" height="832" rx="212" fill="url(#bg)"/>
  <rect x="132" y="132" width="760" height="760" rx="184" fill="none" stroke="#67c3ad" stroke-opacity="0.45" stroke-width="18"/>

  <g filter="url(#shadow)">
    <path
      d="M244 318c0-30 24-54 54-54h132c54 0 95 14 122 42 27-28 68-42 122-42h52c30 0 54 24 54 54v404c0 30-24 54-54 54h-92c-47 0-84 12-110 36-10 9-24 9-34 0-26-24-63-36-110-36h-82c-30 0-54-24-54-54V318Z"
      fill="#173f39"
      opacity="0.22"
    />
    <path
      d="M224 286c0-30 24-54 54-54h152c54 0 95 14 122 42 27-28 68-42 122-42h72c30 0 54 24 54 54v404c0 30-24 54-54 54h-112c-47 0-84 12-110 36-10 9-24 9-34 0-26-24-63-36-110-36H278c-30 0-54-24-54-54V286Z"
      fill="url(#page)"
    />
    <path d="M512 304v434" stroke="#2f7f6c" stroke-width="22" stroke-linecap="round"/>
    <path d="M294 338h134M294 410h156M294 482h120M294 554h142" stroke="#2f7f6c" stroke-width="28" stroke-linecap="round" opacity="0.86"/>
    <path d="M590 338h134M590 410h112" stroke="#2f7f6c" stroke-width="28" stroke-linecap="round" opacity="0.86"/>
  </g>

  <g>
    <rect x="552" y="438" width="226" height="242" rx="46" fill="#c9e5df" opacity="0.72"/>
    <path
      d="M665 506v56M665 562h-52v38M665 562h52v38"
      stroke="#185c51"
      stroke-width="28"
      stroke-linecap="round"
      stroke-linejoin="round"
    />
    <rect x="604" y="452" width="122" height="76" rx="24" fill="#f7fffd" stroke="#185c51" stroke-width="24"/>
    <rect x="556" y="594" width="112" height="76" rx="24" fill="#f7fffd" stroke="#185c51" stroke-width="24"/>
    <rect x="662" y="594" width="112" height="76" rx="24" fill="#dff1ed" stroke="#185c51" stroke-width="24"/>
    <path d="M638 490h54M590 632h44M696 632h44" stroke="#67c3ad" stroke-width="16" stroke-linecap="round"/>
  </g>
</svg>
